<svg version="1" xmlns="http://www.w3.org/2000/svg" width="682.667" height="682.667" viewBox="0 0 512.000000 512.000000"><path d="M92.9.4c-.2.2-2.3.6-4.6 1-2.3.3-5.8 1.2-7.7 2-2 .8-3.6 1.3-3.6 1 0-.9-12 7.2-15.7 10.7-10.2 9.6-16.5 21.6-18 34.4-.8 6.7-.7 154 .1 158.7.8 5.3 4.6 16 6.2 17.9.8.8 1.4 2 1.4 2.6 0 .5.9 1.8 2 2.8 1.1 1 2 2.2 2 2.6 0 2.4 12.9 12.9 20.2 16.3 2.7 1.3 3.3 2.2 3.4 4.9.2 4.8 1.4 23.4 1.9 29.7.2 3 .7 10 1 15.5.3 5.5.8 12.7 1 16 .2 3.3.7 10.5 1 16 .3 5.5.8 12.2 1 15 .3 2.7.7 9.3 1 14.5.6 12.2 1.5 26.1 2.1 32.5.2 2.7.6 9.5.9 15 .3 5.5.7 12.7 1 16 .2 3.3.7 10.8 1 16.6.4 5.8.8 11.7 1 13 .2 1.3.6 4.6 1 7.4.4 2.7.9 5.3 1.1 5.7.6.9 1.7.9-22.1 1.1-18.1.2-19.2.3-22.3 2.5-5.2 3.8-6.1 6.5-6.2 19.8-.1 6.5-.1 13.8-.1 16.1l.1 4.3h341.2l-.4-16.8c-.3-18.1-.8-20-6.6-23.8-2.3-1.6-5.2-1.8-21.5-1.9h-18.9l.7-4.5c1.4-9.6 1.5-10.6 3-36 .6-8.7 1.7-26.1 2-30.5.4-5.4 1.6-24.8 2-31 .5-8.9 1.5-23.8 2-30.5.3-3.6.7-10.1 1-14.5.2-4.4.7-11.8 1-16.5.3-4.7.8-12 1-16.2.7-10.7 1.3-17 1.7-17.4.7-.6 10.8 2.8 10.8 3.7 0 .5.8.9 1.8.9.9 0 2.8.9 4.2 2 1.4 1.1 3.1 2 3.8 2 .6 0 1.2.5 1.2 1.2 0 .6.3.9.6.5.3-.3 1.1-.2 1.8.3 3.3 2.8 10.7 8 11.2 8 .3 0 1.1.6 1.8 1.2.7.7 2.7 2.4 4.5 3.8 1.8 1.4 5.1 4.1 7.4 6.1 4 3.6 4.1 3.7 2.5 6.1-.9 1.4-2.4 3.3-3.3 4.2-.9.9-1.4 1.6-1 1.6.3 0-1.1 2.1-3.2 4.7s-4.1 5.2-4.6 5.8c-.4.5-3.7 4.8-7.4 9.5-7.3 9.4-15.6 21.5-16.6 24.2-.3 1-1.1 1.8-1.7 1.8-.6 0-.8.5-.5 1 .4.6-.1 2.3-1.1 3.8s-1.6 2.7-1.3 2.8c.2 0-.2.8-1 1.7-.7 1-1 1.7-.6 1.7s.3.6-.3 1.3c-.6.7-1.3 2.5-1.6 4-.2 1.5-.7 3.6-1.1 4.6-1.6 5.2-2.5 18.1-1.2 18.1.5 0 .4.7-.3 1.5-.8.9-.8 1.5-.2 1.5.7 0 .8 1 .2 3-.5 1.6-.6 3-.2 3 .4 0 .7 1.2.8 2.8.1 3.7 1.7 11.5 3.2 15.2.3.8.6 1.7.7 2 .8 2.9 4.9 11 5.6 11 .5 0 .9.6.9 1.2 0 2.4 11.1 14.4 14.2 15.4 1 .3 1.8.9 1.8 1.3 0 1.2 14 7.9 19 9.1 10.4 2.6 13.9 3.1 22 3.1 11.1.1 15.7-.7 25.2-4.1 15.7-5.7 25.6-15.8 33.7-34.1 1.1-2.5 2.3-5.9 2.6-7.5 1.2-5.4 1.8-9.9 1.9-12.6.1-1.4.4-2.4.7-2.2.8.5.3-16.1-.5-17.5-.4-.6-.2-1.1.4-1.1.6 0 .8-.5.5-1-.4-.6-.8-2.3-1.1-3.8-1.1-7.7-2.8-14.8-3.5-15.7-.5-.5-.9-1.7-.9-2.7 0-.9-1.1-4.2-2.5-7.2s-2.5-5.7-2.5-6c0-.8-9-15.7-13.3-22-7.6-11.1-12.6-17.4-19-24-5.3-5.5-5.8-6.8-4.4-10.5.6-1.7 1.5-3.1 2-3.1.4 0 .6-.4.3-.9s.1-2.2.9-3.7c.8-1.6 1.5-3.6 1.5-4.5 0-.9.3-1.9.7-2.3.4-.3.8-1.2 1-1.9.1-.7.7-3 1.3-5.2 2.6-9.9 4.8-21.9 5.2-28.3.1-2.8.8-4.6 1.7-5.1.9-.4 6.1-.6 11.6-.5 11.7.1 13.9-.5 15.2-4.3 2.2-6.1-1.8-9.7-10.7-9.7-6.1-.1-6 .1-3.8-7.7 1-3.3 1.3-13.3 1.2-37l-.1-32.4-2.7-5.7c-1.5-3.3-4.6-7.4-7-9.5l-4.3-3.8-.1-21.8-.1-21.9 3.1-5.1c1.7-2.9 3-5.3 2.9-5.4 0-.2 4.9-10.3 10.9-22.5 6.1-12.3 11.2-23.7 11.4-25.4.2-1.8-.2-4.5-.9-6-1.5-3.4-6.4-8.6-7.6-7.9-.4.3-1 .1-1.3-.4-.6-1-7.2-.8-8.2.2-.4.4-1.4.7-2.2.7-2 0-5.5 4.3-8.9 10.9-1.5 3.1-3.2 5.9-3.6 6.2-.5.3-.9 1-.9 1.5 0 1.9-3.1 8.4-3.9 8.4-.5 0-.9.6-.9 1.4 0 .8-2.2 5.7-5 11-2.7 5.3-4.7 9.6-4.2 9.6.4 0 .2.4-.4.8-.5.4-2.7 4.1-4.8 8.2l-3.8 7.5-.1 25c0 24.1-.1 25.1-2.1 26.8-5.2 4.4-6.7 6.2-9.3 11.5-2.6 5.4-2.7 6-2.7 22.8v17.2l-3.8-.2c-2.1 0-4 .3-4.2.9-.3.7-.5.7-.5 0-.1-.6-3.8-.9-9.5-.8-5.2.2-9.7-.1-10-.6-.3-.4-.6-31.3-.6-68.5-.1-55.2-.4-68.4-1.5-71.7-.8-2.1-1.4-4-1.4-4.2.2-1.7-6.2-14.7-7.3-14.7-.4 0-.8-.5-.8-1 0-1.6-6.2-8.4-10-11-1.2-.8-3.4-2.5-4.8-3.7C356.7 8 355 7 354.3 7c-.6 0-1.8-.6-2.5-1.3-.7-.6-2-1.4-2.8-1.6-.8-.2-3.7-1.1-6.5-2C338.1.7 323.7.5 215.4.2 148.3.1 93.2.1 92.9.4zm318.4 213.2c1.1.3 1.7 1.5 1.7 3.3 0 1.6.7 4.5 1.5 6.4.8 2 1.1 3.8.7 4-.4.2-2.6.3-4.9.2-2.4-.1-4.3.2-4.3.5 0 .4-1 .5-2.2.3-2.8-.5-6 4.2-5.3 7.7.9 4.8 2.7 5.5 15.3 5.6l11.7.1.1 3.4c.1 6.7-3.8 24.9-6.9 32.1l-1.1 2.6-5.6-4.7c-7.1-6.1-16.6-13.1-17.9-13.1-.5 0-1.1-.4-1.3-.8-.6-1.4-18-10.8-28.6-15.3l-3.2-1.4 4.5-3.5c2.4-1.9 4.4-3.9 4.5-4.3 0-.4 1.1-1.9 2.4-3.4 2.6-2.8 8.1-13.3 9.1-17.4l.6-2.6 13.7-.1c7.5-.1 14.5.1 15.5.4zm16.8 116.5c1.3 1.8 3.1 3.9 3.9 4.9.8 1 2.6 3.2 4 5 1.4 1.8 3.1 3.9 3.8 4.6.6.7 1.2 1.5 1.2 1.8 0 .2 1.7 3.1 3.8 6.3 2.1 3.2 4.5 7.3 5.3 9 .8 1.8 1.7 3.3 2.1 3.3.5 0 .8.8.8 1.8s.4 2.2.8 2.8c.9.9 3.8 9.9 4.7 14.4.7 3.2 1.8 14.1 1.6 15.7 0 .7-.1 2.5-.1 4-.1 4.3-2.1 13.6-3.3 15.8-.6 1.1-1 2.3-.9 2.8.1.4-1.4 3.1-3.3 6-1.9 2.8-3.5 4.7-3.5 4.2 0-.6-.3-.6-.8.1-1.1 1.6-8.2 6.7-8.2 5.9 0-.4-.6-.2-1.3.4-.8.6-1.7.8-2 .4-.4-.3-.7-.2-.7.3 0 .9-19.6 1.2-21 .4-.5-.2-3.9-.9-6.7-1.2-.7-.1-1.3-.5-1.3-.9 0-.6-4.5-2.2-4.5-1.6-.1.4-3.6-2.6-7.4-6.3-7.9-7.7-11.3-18.7-10.6-34.5.2-5 1.1-11 2-13.5 1.9-5.2 7.4-15.2 8.9-16.2.6-.4.7-.8.3-.8-.4 0 .6-1.5 2.2-3.3 1.7-1.7 3.1-3.8 3.1-4.5 0-.6.5-1.2 1-1.2.6 0 1-.4 1-1 0-.5 1-2 2.3-3.2 1.2-1.3 3.3-3.9 4.7-5.8 1.4-1.8 3.4-4.4 4.5-5.6 1.1-1.3 3.8-4.8 6-7.8 2.2-3.1 4.2-5.6 4.6-5.6.3 0 1.7 1.4 3 3.1z"/></svg>